<svg id="Layer_1" data-name="Layer 1" xmlns="http://www.w3.org/2000/svg" xmlns:xlink="http://www.w3.org/1999/xlink" viewBox="0 0 424.56 25.31"><defs><style>.cls-1{fill:none;}.cls-2{clip-path:url(#clip-path);}.cls-3{fill:#211f5e;}.cls-4{fill:#2265b0;}.cls-5{fill:#2c8ecd;}</style><clipPath id="clip-path" transform="translate(-4.56 -0.57)"><rect class="cls-1" x="4.6" y="0.57" width="424.51" height="25.31"/></clipPath></defs><g class="cls-2"><path class="cls-3" d="M212.76,5.79h6c2.74,0,3.32,1.49,3.32,2.93s-.58,2.93-3.32,2.93h-6V5.79Zm0,10.52h4.08a13.7,13.7,0,0,0,12.75,8.25V19.63c-3.33-.44-5.5-1.69-6.91-3.72,3.9-1,5.29-3.8,5.29-7.19,0-4.25-2.17-7.59-8.78-7.59H207.13V24.56h5.63V16.31Zm37.54-3.47c0,4.18-1.57,7.08-6.81,7.08h-4V5.77h4c5.24,0,6.81,2.9,6.81,7.07ZM233.87,1.13V24.56h9.78c8.71,0,12.29-4.54,12.29-11.72S252.36,1.13,243.65,1.13Zm-48.2,11.71c0-5,.71-7.87,5.49-7.87s5.49,2.86,5.49,7.87-.7,7.88-5.49,7.88-5.49-2.86-5.49-7.88Zm16.68,0c0-7.21-2.22-12.27-11.19-12.27S180,5.63,180,12.84s2.22,12.28,11.18,12.28,11.19-5.06,11.19-12.28ZM163.16,5.77V10.6h11.43v4.54H163.16v9.42h-5.65V1.13H176.2V5.77Z" transform="translate(-4.56 -0.57)"/><path class="cls-4" d="M100.32,5.79h5.94c2.75,0,3.32,1.49,3.32,2.93s-.57,2.93-3.32,2.93h-5.94V5.79Zm0,10.52h4.07a13.72,13.72,0,0,0,12.76,8.25V19.64c-3.33-.45-5.51-1.7-6.92-3.73,3.91-1,5.3-3.8,5.3-7.19,0-4.25-2.18-7.59-8.78-7.59H94.69V24.56h5.63V16.31ZM120.8,8.8V1.13h5.59V8.31c0,2.39,1.32,3.46,4,3.46a11.35,11.35,0,0,0,5.76-1.36V1.13h5.63V14.5c0,5.81-1.77,10.64-12.28,10.64a36,36,0,0,1-7.89-.83V19.69a34.91,34.91,0,0,0,7.89,1c5.59,0,6.65-2.47,6.65-5.48v-.58a14.83,14.83,0,0,1-6.7,1.61c-6.38,0-8.64-3-8.64-7.43ZM71.67,24.56H66V1.13h4.68L83.55,16l-.3-14.9h5.64V24.56H84.21L71.41,9.66l.26,14.9ZM13.59,14.08a44.56,44.56,0,0,0-9,2.12V11.5a40.44,40.44,0,0,1,9-2V1.13h5.64V9c.69,0,1.39,0,2.1,0a45.73,45.73,0,0,1,9.29.82V1.13h5.63V24.56H30.62V14.67a38.43,38.43,0,0,0-9.84-1.08c-.53,0-1,0-1.55,0V24.56H13.59V14.08ZM61.24,24.56H42.05V1.13H61.24V5.77H47.69v4.64H59.63V15H47.69v5H61.24v4.64Z" transform="translate(-4.56 -0.57)"/></g><path class="cls-5" d="M425.06,22.88h1c.64,0,.78-.33.78-.67s-.14-.68-.78-.68h-1v1.35Zm4.05.05c0,2.42-1.45,2.94-3.21,2.94s-3.21-.52-3.21-2.94S424.15,20,425.9,20s3.21.49,3.21,2.94m-6.15,0c0,2.31,1.41,2.72,2.94,2.72s3-.41,3-2.72-1.41-2.72-3-2.72-2.94.41-2.94,2.72m2.1,1.63h-.27V21.3H426c.88,0,1.14.41,1.14.91a.82.82,0,0,1-.65.86l.87,1.49h-.34l-.8-1.43h-1.19v1.43Zm-.27-11a40.94,40.94,0,0,1-9.37,2.07v8.94h-5.63V16q-.89,0-1.77,0a44.85,44.85,0,0,1-9.63-.89v9.38h-5.63V1.13h5.63v9.16a37.35,37.35,0,0,0,10.18,1.17c.41,0,.81,0,1.22,0V1.13h5.63V11a44.61,44.61,0,0,0,9.37-2.17v4.7Zm-58-12.42h21.66V5.75h-8V24.56h-5.64V5.75h-8V1.13ZM356.3,19.9h13.55v4.66h-19.2V1.13h5.65V19.9ZM298.74,1.13h19.19V5.75H304.38v4.64h11.94v4.54H304.38v5h13.55v4.66H298.74V1.13Zm-11.43,9.14H275.92V1.13h-5.64V24.56h5.64V14.81h11.39v9.75H293V1.13h-5.64v9.14Zm43.44,5.67,3.48-9.23,3.48,9.23ZM336.9.71h-5.34L321.33,24.56h6.15l1.81-4.73h9.88L341,24.56h6.15L336.9.71Z" transform="translate(-4.56 -0.57)"/></svg>