<svg id="Layer_1" data-name="Layer 1" xmlns="http://www.w3.org/2000/svg" viewBox="0 0 350.49 22.46"><defs><style>.cls-1{fill:#fff;}</style></defs><path class="cls-1" d="M347.76,21h.86c.52,0,.64-.3.64-.6s-.12-.6-.64-.6h-.86V21Zm3.35,0c0,2.15-1.21,2.62-2.65,2.62s-2.66-.47-2.66-2.62,1.21-2.61,2.66-2.61,2.65.44,2.65,2.61m-5.09,0c0,2.05,1.17,2.41,2.44,2.41s2.43-.36,2.43-2.41-1.17-2.41-2.43-2.41S346,19,346,21.08m1.74,1.45h-.22V19.64h1c.72,0,.94.36.94.8a.71.71,0,0,1-.54.76l.73,1.33h-.28l-.67-1.27h-1v1.27Zm-.22-9.77a32.34,32.34,0,0,1-7.74,1.84v7.93h-4.65V15c-.48,0-1,0-1.46,0a34.72,34.72,0,0,1-7.95-.79v8.32H321.1V1.74h4.64V9.86a28.64,28.64,0,0,0,8.41,1l1,0V1.74h4.65v8.77a35.26,35.26,0,0,0,7.74-1.92v4.17Zm-47.86-11h17.88V5.83H311v16.7h-4.66V5.83h-6.61V1.74ZM291,18.39h11.19v4.14H286.33V1.74H291V18.39ZM243.48,1.74h15.84V5.83H248.14V10H258v4h-9.85v4.41h11.18v4.14H243.48V1.74ZM234,9.85h-9.4V1.74H220V22.53h4.66V13.88H234v8.65h4.66V1.74H234V9.85Zm-154.37-4h4.91c2.26,0,2.74,1.32,2.74,2.6s-.48,2.6-2.74,2.6H79.67V5.87Zm0,9.34H83c1.85,4.14,5.35,7.32,10.53,7.32V18.16a7.58,7.58,0,0,1-5.71-3.3c3.23-.89,4.38-3.38,4.38-6.39,0-3.77-1.8-6.73-7.25-6.73H75V22.53h4.65V15.21ZM96.58,8.55V1.74h4.61V8.11c0,2.12,1.1,3.07,3.3,3.07A8.8,8.8,0,0,0,109.24,10V1.74h4.65V13.6c0,5.16-1.46,9.44-10.14,9.44a27.22,27.22,0,0,1-6.51-.74V18.2a26.91,26.91,0,0,0,6.51.89c4.61,0,5.49-2.2,5.49-4.87v-.51a11.48,11.48,0,0,1-5.52,1.43c-5.27,0-7.14-2.64-7.14-6.59ZM56,22.53H51.36V1.74h3.87L65.83,15,65.58,1.74h4.66V22.53H66.37L55.81,9.31,56,22.53ZM8.08,13.23A34.32,34.32,0,0,0,.62,15.11V10.94a31.63,31.63,0,0,1,7.46-1.8V1.74h4.65v7c.57,0,1.15,0,1.73,0a35,35,0,0,1,7.67.73V1.74h4.65V22.53H22.13V13.75A29.64,29.64,0,0,0,14,12.8c-.44,0-.86,0-1.28,0v9.7H8.08v-9.3Zm39.33,9.3H31.57V1.74H47.41V5.85H36.22V10h9.86v4H36.22v4.4H47.41v4.12ZM172.5,5.87h4.91c2.27,0,2.74,1.32,2.74,2.6s-.47,2.6-2.74,2.6H172.5V5.87Zm0,9.34h3.36c1.85,4.14,5.35,7.32,10.53,7.32V18.16a7.57,7.57,0,0,1-5.71-3.31c3.23-.88,4.38-3.37,4.38-6.38,0-3.77-1.8-6.73-7.25-6.73h-10V22.53h4.65V15.21Zm31-3.08c0,3.71-1.29,6.28-5.61,6.28h-3.29V5.85h3.29c4.32,0,5.61,2.58,5.61,6.28ZM189.93,1.74V22.53H198c7.2,0,10.15-4,10.15-10.4S205.19,1.74,198,1.74ZM150.14,12.13c0-4.45.58-7,4.53-7s4.53,2.53,4.53,7-.58,7-4.53,7-4.53-2.54-4.53-7Zm13.76,0c0-6.4-1.83-10.89-9.23-10.89s-9.23,4.49-9.23,10.89S147.27,23,154.67,23s9.23-4.49,9.23-10.9ZM131.55,5.85v4.29H141v4h-9.44v8.36h-4.66V1.74h15.43V5.85Zm138.36,9,2.87-8.19,2.87,8.19ZM275,1.36h-4.41l-8.44,21.17h5.07l1.5-4.2h8.15l1.5,4.2h5.07L275,1.36Z" transform="translate(-0.62 -1.24)"/></svg>